<mxfile host="app.diagrams.net" modified="2023-10-19T09:05:26.832Z" agent="Mozilla/5.0 (Windows NT 10.0; Win64; x64) AppleWebKit/537.36 (KHTML, like Gecko) Chrome/118.0.0.0 Safari/537.36" etag="_AjUyg0IxNb02l-AgzMr" version="22.0.4" type="google">
  <diagram name="Page-1" id="Page-1">
    <mxGraphModel grid="1" page="1" gridSize="10" guides="1" tooltips="1" connect="1" arrows="1" fold="1" pageScale="1" pageWidth="850" pageHeight="1100" math="0" shadow="0">
      <root>
        <mxCell id="0" />
        <mxCell id="1" parent="0" />
        <UserObject label="" tags="Container" id="2">
          <mxCell style="vsdxID=4;strokeWidth=2;spacingLeft=1;spacingRight=1;points=[[0.25,0,0],[0.5,0,0],[0.75,0,0],[1,0.25,0],[1,0.5,0],[1,0.75,0],[0.75,0.75,0],[0.5,0.75,0],[0.25,0.75,0],[0.25,0.75,0],[0.25,0.5,0],[0.25,0.25,0]];labelBackgroundColor=none;rounded=0;html=1;whiteSpace=wrap;" vertex="1" parent="1">
            <mxGeometry x="470" y="112" width="761.1819201030928" height="876.22" as="geometry" />
          </mxCell>
        </UserObject>
        <mxCell id="3" style="vsdxID=5;shape=stencil(UzV2Ls5ILEhVNTIoLinKz04tz0wpyVA1dlE1MsrMy0gtyiwBslSNXVWNndPyi1LTi/JL81Ig/IJEkEoQKze/DGRCBUSfAUiHkUElhGdoAOG7QZTmZOYhKTWlkVqYJFmKiXcDVVSSqRDNS0AGIj7SMnNyINGJLI8ef0AhSNwbuwIA);shadow=1;points=[[0.25,0,0],[0.5,0,0],[0.75,0,0],[1,0.25,0],[1,0.5,0],[1,0.75,0],[0.75,1,0],[0.5,1,0],[0.25,1,0],[0,0.75,0],[0,0.5,0],[0,0.25,0]];labelBackgroundColor=none;rounded=0;html=1;whiteSpace=wrap;" vertex="1" parent="2">
          <mxGeometry y="-6" width="761.1819201030928" height="876.22" as="geometry" />
        </mxCell>
        <UserObject label="&lt;div style=&quot;font-size: 1px&quot;&gt;&lt;font style=&quot;font-size:16.93px;font-family:Calibri;color:#1b2e3f;direction:ltr;letter-spacing:0px;line-height:120%;opacity:1&quot;&gt;View Events&lt;br/&gt;&lt;/font&gt;&lt;/div&gt;" tags="Background" id="41">
          <mxCell style="verticalAlign=middle;align=center;overflow=width;vsdxID=173;shape=stencil(vVHLDsIgEPwajiQI6RfU+h8bu22JCGRB2/69kG1iazx58DazM/vIjjBtmiCi0CplCjecbZ8nYc5Ca+snJJsLEqYTph0C4Ujh4XvmEaqzont41gkL96naodXKrGF6YSfQtUi0OXXDVlqPfJNP6usotUhYbJIUMmQb/GGrAxpRljVycDBuc1hKM2LclX8/7H9nFfB+82Cd45T2+mcspcSRmu4F);strokeWidth=2;points=[];labelBackgroundColor=none;rounded=0;html=1;whiteSpace=wrap;" vertex="1" parent="3">
            <mxGeometry x="596.6669259553304" y="424" width="134.0463917525773" height="43" as="geometry" />
          </mxCell>
        </UserObject>
        <UserObject label="&lt;div style=&quot;font-size: 1px&quot;&gt;&lt;font style=&quot;font-size:16.93px;font-family:Calibri;color:#1b2e3f;direction:ltr;letter-spacing:0px;line-height:120%;opacity:1&quot;&gt;View Timetable&lt;br/&gt;&lt;/font&gt;&lt;/div&gt;" tags="Background" id="42">
          <mxCell style="verticalAlign=middle;align=center;overflow=width;vsdxID=178;shape=stencil(vVHLDsIgEPwajiQI6RfU+h8bu22JCGRB2/69kG1iazx58DazM/vIjjBtmiCi0CplCjecbZ8nYc5Ca+snJJsLEqYTph0C4Ujh4XvmEaqzont41gkL96naodXKrGF6YSfQtUi0OXXDVlqPfJNP6usotUhYbJIUMmQb/GGrAxpRljVycDBuc1hKM2LclX8/7H9nFfB+82Cd45T2+mcspcSRmu4F);strokeWidth=2;points=[];labelBackgroundColor=none;rounded=0;html=1;whiteSpace=wrap;" vertex="1" parent="3">
            <mxGeometry x="596.6669259553304" y="478" width="134.0463917525773" height="43" as="geometry" />
          </mxCell>
        </UserObject>
        <UserObject label="&lt;div style=&quot;font-size: 1px&quot;&gt;&lt;font style=&quot;font-size:16.93px;font-family:Calibri;color:#1b2e3f;direction:ltr;letter-spacing:0px;line-height:120%;opacity:1&quot;&gt;Enable Reminders&lt;br/&gt;&lt;/font&gt;&lt;/div&gt;" tags="Background" id="45">
          <mxCell style="verticalAlign=middle;align=center;overflow=width;vsdxID=192;shape=stencil(vVHLDsIgEPwajiQI6RfU+h8bu22JCGRB2/69kG1iazx58DazM/vIjjBtmiCi0CplCjecbZ8nYc5Ca+snJJsLEqYTph0C4Ujh4XvmEaqzont41gkL96naodXKrGF6YSfQtUi0OXXDVlqPfJNP6usotUhYbJIUMmQb/GGrAxpRljVycDBuc1hKM2LclX8/7H9nFfB+82Cd45T2+mcspcSRmu4F);strokeWidth=2;points=[];labelBackgroundColor=none;rounded=0;html=1;whiteSpace=wrap;" vertex="1" parent="3">
            <mxGeometry x="596.66" y="532" width="143.34" height="38" as="geometry" />
          </mxCell>
        </UserObject>
        <UserObject label="&lt;div style=&quot;font-size: 1px&quot;&gt;&lt;font style=&quot;font-size:16.93px;font-family:Calibri;color:#1b2e3f;direction:ltr;letter-spacing:0px;line-height:120%;opacity:1&quot;&gt;Access Faculty Info&lt;br/&gt;&lt;/font&gt;&lt;/div&gt;" tags="Background" id="43">
          <mxCell style="verticalAlign=middle;align=center;overflow=width;vsdxID=182;shape=stencil(vVHLDsIgEPwajiQI6RfU+h8bu22JCGRB2/69kG1iazx58DazM/vIjjBtmiCi0CplCjecbZ8nYc5Ca+snJJsLEqYTph0C4Ujh4XvmEaqzont41gkL96naodXKrGF6YSfQtUi0OXXDVlqPfJNP6usotUhYbJIUMmQb/GGrAxpRljVycDBuc1hKM2LclX8/7H9nFfB+82Cd45T2+mcspcSRmu4F);strokeWidth=2;points=[];labelBackgroundColor=none;rounded=0;html=1;whiteSpace=wrap;" vertex="1" parent="3">
            <mxGeometry x="590.9220805945057" y="588" width="138.83376288659792" height="43" as="geometry" />
          </mxCell>
        </UserObject>
        <UserObject label="&lt;div style=&quot;font-size: 1px&quot;&gt;&lt;font style=&quot;font-size:16.93px;font-family:Calibri;color:#1b2e3f;direction:ltr;letter-spacing:0px;line-height:120%;opacity:1&quot;&gt;View Announcements&lt;br/&gt;&lt;/font&gt;&lt;/div&gt;" tags="Background" id="44">
          <mxCell style="verticalAlign=middle;align=center;overflow=width;vsdxID=187;shape=stencil(vVHLDsIgEPwajiQI6RfU+h8bu22JCGRB2/69kG1iazx58DazM/vIjjBtmiCi0CplCjecbZ8nYc5Ca+snJJsLEqYTph0C4Ujh4XvmEaqzont41gkL96naodXKrGF6YSfQtUi0OXXDVlqPfJNP6usotUhYbJIUMmQb/GGrAxpRljVycDBuc1hKM2LclX8/7H9nFfB+82Cd45T2+mcspcSRmu4F);strokeWidth=2;points=[];labelBackgroundColor=none;rounded=0;html=1;whiteSpace=wrap;" vertex="1" parent="3">
            <mxGeometry x="561.2433289745595" y="232" width="169.4729381443299" height="53" as="geometry" />
          </mxCell>
        </UserObject>
        <UserObject label="&lt;div style=&quot;font-size: 1px&quot;&gt;&lt;font style=&quot;font-size:16.93px;font-family:Calibri;color:#1b2e3f;direction:ltr;letter-spacing:0px;line-height:120%;opacity:1&quot;&gt;View Course Material&lt;/font&gt;&lt;/div&gt;" tags="Background" id="zwYqGLrPk0C4on1Yfifq-146">
          <mxCell style="verticalAlign=middle;align=center;overflow=width;vsdxID=187;shape=stencil(vVHLDsIgEPwajiQI6RfU+h8bu22JCGRB2/69kG1iazx58DazM/vIjjBtmiCi0CplCjecbZ8nYc5Ca+snJJsLEqYTph0C4Ujh4XvmEaqzont41gkL96naodXKrGF6YSfQtUi0OXXDVlqPfJNP6usotUhYbJIUMmQb/GGrAxpRljVycDBuc1hKM2LclX8/7H9nFfB+82Cd45T2+mcspcSRmu4F);strokeWidth=2;points=[];labelBackgroundColor=none;rounded=0;html=1;whiteSpace=wrap;" vertex="1" parent="3">
            <mxGeometry x="561.2433289745595" y="164" width="169.4729381443299" height="53" as="geometry" />
          </mxCell>
        </UserObject>
        <UserObject label="&lt;div style=&quot;font-size: 1px&quot;&gt;&lt;font style=&quot;font-size:16.93px;font-family:Calibri;color:#1b2e3f;direction:ltr;letter-spacing:0px;line-height:120%;opacity:1&quot;&gt;Authentication&lt;br/&gt;&lt;/font&gt;&lt;/div&gt;" tags="Background" id="24">
          <mxCell style="verticalAlign=middle;align=center;overflow=width;vsdxID=20;shape=stencil(vVHLDsIgEPwajiQI6RfU+h8bu22JCGRB2/69kG1iazx58DazM/vIjjBtmiCi0CplCjecbZ8nYc5Ca+snJJsLEqYTph0C4Ujh4XvmEaqzont41gkL96naodXKrGF6YSfQtUi0OXXDVlqPfJNP6usotUhYbJIUMmQb/GGrAxpRljVycDBuc1hKM2LclX8/7H9nFfB+82Cd45T2+mcspcSRmu4F);strokeWidth=2;points=[];labelBackgroundColor=none;rounded=0;html=1;whiteSpace=wrap;" vertex="1" parent="3">
            <mxGeometry x="576.5629166034256" y="103" width="138.83376288659792" height="53" as="geometry" />
          </mxCell>
        </UserObject>
        <UserObject label="&lt;div style=&quot;font-size: 1px&quot;&gt;&lt;font style=&quot;font-size:16.93px;font-family:Calibri;color:#1b2e3f;direction:ltr;letter-spacing:0px;line-height:120%;opacity:1&quot;&gt;Profile Management&lt;br/&gt;&lt;/font&gt;&lt;/div&gt;" tags="Background" id="46">
          <mxCell style="verticalAlign=middle;align=center;overflow=width;vsdxID=194;shape=stencil(vVHLDsIgEPwajiQI6RfU+h8bu22JCGRB2/69kG1iazx58DazM/vIjjBtmiCi0CplCjecbZ8nYc5Ca+snJJsLEqYTph0C4Ujh4XvmEaqzont41gkL96naodXKrGF6YSfQtUi0OXXDVlqPfJNP6usotUhYbJIUMmQb/GGrAxpRljVycDBuc1hKM2LclX8/7H9nFfB+82Cd45T2+mcspcSRmu4F);strokeWidth=2;points=[];labelBackgroundColor=none;rounded=0;html=1;whiteSpace=wrap;" vertex="1" parent="3">
            <mxGeometry x="232.0914948453608" y="222" width="168.51546391752578" height="53" as="geometry" />
          </mxCell>
        </UserObject>
        <UserObject label="&lt;div style=&quot;font-size: 1px&quot;&gt;&lt;font style=&quot;font-size:16.93px;font-family:Calibri;color:#1b2e3f;direction:ltr;letter-spacing:0px;line-height:120%;opacity:1&quot;&gt;Manage Course Material&lt;br&gt;&lt;/font&gt;&lt;/div&gt;" tags="Background" id="25">
          <mxCell style="verticalAlign=middle;align=center;overflow=width;vsdxID=48;shape=stencil(vVHLDsIgEPwajiQI6RfU+h8bu22JCGRB2/69kG1iazx58DazM/vIjjBtmiCi0CplCjecbZ8nYc5Ca+snJJsLEqYTph0C4Ujh4XvmEaqzont41gkL96naodXKrGF6YSfQtUi0OXXDVlqPfJNP6usotUhYbJIUMmQb/GGrAxpRljVycDBuc1hKM2LclX8/7H9nFfB+82Cd45T2+mcspcSRmu4F);strokeWidth=2;points=[];labelBackgroundColor=none;rounded=0;html=1;whiteSpace=wrap;" vertex="1" parent="3">
            <mxGeometry x="222.13402061855672" y="168" width="180.00515463917526" height="45" as="geometry" />
          </mxCell>
        </UserObject>
        <UserObject label="&lt;div style=&quot;font-size: 1px&quot;&gt;&lt;font style=&quot;font-size:11.29px;font-family:Calibri;color:#305475;direction:ltr;letter-spacing:0px;line-height:120%;opacity:1&quot;&gt;&amp;lt;&amp;lt;Extend&amp;gt;&amp;gt;&lt;br/&gt;&lt;/font&gt;&lt;/div&gt;" tags="Connector" id="zwYqGLrPk0C4on1Yfifq-147">
          <mxCell style="vsdxID=186;edgeStyle=none;dashed=1;startArrow=none;endArrow=open;startSize=2;endSize=7;strokeColor=#41719c;spacingTop=0;spacingBottom=0;spacingLeft=0;spacingRight=0;verticalAlign=middle;html=1;labelBackgroundColor=#ffffff;rounded=0;align=center;exitX=0.013;exitY=0.545;exitDx=0;exitDy=0;exitPerimeter=0;entryX=1.004;entryY=0.475;entryDx=0;entryDy=0;entryPerimeter=0;" edge="1" parent="3" source="zwYqGLrPk0C4on1Yfifq-146" target="25">
            <mxGeometry x="0.0166" y="-8" relative="1" as="geometry">
              <mxPoint as="offset" />
              <Array as="points" />
              <mxPoint x="395.4368556701031" y="246" as="targetPoint" />
            </mxGeometry>
          </mxCell>
        </UserObject>
        <UserObject label="&lt;div style=&quot;font-size: 1px&quot;&gt;&lt;font style=&quot;font-size:16.93px;font-family:Calibri;color:#1b2e3f;direction:ltr;letter-spacing:0px;line-height:120%;opacity:1&quot;&gt;Approve Requests&lt;/font&gt;&lt;font style=&quot;font-size:16.93px;font-family:Themed;color:#1b2e3f;direction:ltr;letter-spacing:0px;line-height:120%;opacity:1&quot;&gt;&lt;br/&gt;&lt;/font&gt;&lt;/div&gt;" tags="Background" id="32">
          <mxCell style="verticalAlign=middle;align=center;overflow=width;vsdxID=72;shape=stencil(vVHLDsIgEPwajiQI6RfU+h8bu22JCGRB2/69kG1iazx58DazM/vIjjBtmiCi0CplCjecbZ8nYc5Ca+snJJsLEqYTph0C4Ujh4XvmEaqzont41gkL96naodXKrGF6YSfQtUi0OXXDVlqPfJNP6usotUhYbJIUMmQb/GGrAxpRljVycDBuc1hKM2LclX8/7H9nFfB+82Cd45T2+mcspcSRmu4F);strokeWidth=2;points=[];labelBackgroundColor=none;rounded=0;html=1;whiteSpace=wrap;" vertex="1" parent="3">
            <mxGeometry x="223.08999999999992" y="734" width="197" height="47" as="geometry" />
          </mxCell>
        </UserObject>
        <UserObject label="&lt;div style=&quot;font-size: 1px&quot;&gt;&lt;font style=&quot;font-size:16.93px;font-family:Calibri;color:#1b2e3f;direction:ltr;letter-spacing:0px;line-height:120%;opacity:1&quot;&gt;Manage Users&lt;br&gt;&lt;/font&gt;&lt;/div&gt;" tags="Background" id="38">
          <mxCell style="verticalAlign=middle;align=center;overflow=width;vsdxID=116;shape=stencil(vVHLDsIgEPwajiQI6RfU+h8bu22JCGRB2/69kG1iazx58DazM/vIjjBtmiCi0CplCjecbZ8nYc5Ca+snJJsLEqYTph0C4Ujh4XvmEaqzont41gkL96naodXKrGF6YSfQtUi0OXXDVlqPfJNP6usotUhYbJIUMmQb/GGrAxpRljVycDBuc1hKM2LclX8/7H9nFfB+82Cd45T2+mcspcSRmu4F);strokeWidth=2;points=[];labelBackgroundColor=none;rounded=0;html=1;whiteSpace=wrap;" vertex="1" parent="3">
            <mxGeometry x="222.1300000000001" y="674" width="197" height="47" as="geometry" />
          </mxCell>
        </UserObject>
        <UserObject label="&lt;div style=&quot;font-size: 1px&quot;&gt;&lt;font style=&quot;font-size:16.93px;font-family:Calibri;color:#1b2e3f;direction:ltr;letter-spacing:0px;line-height:120%;opacity:1&quot;&gt;View Routes&lt;br&gt;&lt;/font&gt;&lt;/div&gt;" tags="Background" id="QN068_K_DJ08zxaq-ks4-145">
          <mxCell style="verticalAlign=middle;align=center;overflow=width;vsdxID=178;shape=stencil(vVHLDsIgEPwajiQI6RfU+h8bu22JCGRB2/69kG1iazx58DazM/vIjjBtmiCi0CplCjecbZ8nYc5Ca+snJJsLEqYTph0C4Ujh4XvmEaqzont41gkL96naodXKrGF6YSfQtUi0OXXDVlqPfJNP6usotUhYbJIUMmQb/GGrAxpRljVycDBuc1hKM2LclX8/7H9nFfB+82Cd45T2+mcspcSRmu4F);strokeWidth=2;points=[];labelBackgroundColor=none;rounded=0;html=1;whiteSpace=wrap;" vertex="1" parent="3">
            <mxGeometry x="590.9269259553305" y="644" width="134.0463917525773" height="43" as="geometry" />
          </mxCell>
        </UserObject>
        <mxCell id="5" style="vsdxID=7;fillColor=none;gradientColor=none;gradientDirection=north;strokeColor=none;strokeWidth=2;spacingLeft=1;spacingRight=1;points=[[0.25,0,0],[0.5,0,0],[0.75,0,0],[1,0.25,0],[1,0.5,0],[1,0.75,0],[0.75,1,0],[0.5,1,0],[0.25,1,0],[0,0.75,0],[0,0.5,0],[0,0.25,0]];labelBackgroundColor=none;rounded=0;html=1;whiteSpace=wrap;" vertex="1" parent="2">
          <mxGeometry width="743" height="60" as="geometry" />
        </mxCell>
        <mxCell id="6" value="&lt;div style=&quot;font-size: 1px&quot;&gt;&lt;p style=&quot;text-align:center;margin-left:0;margin-right:0;margin-top:0px;margin-bottom:0px;text-indent:0;vertical-align:middle;direction:ltr;&quot;&gt;&lt;/p&gt;&lt;/div&gt;" style="verticalAlign=middle;align=center;overflow=width;vsdxID=8;fillColor=none;gradientColor=none;strokeColor=none;strokeWidth=2;points=[[0.25,0,0],[0.5,0,0],[0.75,0,0],[1,0.25,0],[1,0.5,0],[1,0.75,0],[0.75,1,0],[0.5,1,0],[0.25,1,0],[0,0.75,0],[0,0.5,0],[0,0.25,0]];labelBackgroundColor=none;rounded=0;html=1;whiteSpace=wrap;" vertex="1" parent="5">
          <mxGeometry width="743" height="60" as="geometry" />
        </mxCell>
        <mxCell id="7" value="&lt;div style=&quot;font-size: 1px&quot;&gt;&lt;p style=&quot;text-align:center;margin-left:0;margin-right:0;margin-top:0px;margin-bottom:0px;text-indent:0;vertical-align:middle;direction:ltr;&quot;&gt;&lt;font style=&quot;font-size:19.76px;font-family:Calibri;color:#41719c;direction:ltr;letter-spacing:0px;line-height:120%;opacity:1&quot;&gt;&lt;br/&gt;Student Support and Navigation Application&lt;br/&gt;&lt;/font&gt;&lt;/p&gt;&lt;/div&gt;" style="text;vsdxID=7;fillColor=none;gradientColor=none;gradientDirection=north;strokeColor=none;strokeWidth=2;spacingLeft=1;spacingRight=1;points=[[0.25,0,0],[0.5,0,0],[0.75,0,0],[1,0.25,0],[1,0.5,0],[1,0.75,0],[0.75,1,0],[0.5,1,0],[0.25,1,0],[0,0.75,0],[0,0.5,0],[0,0.25,0]];labelBackgroundColor=none;rounded=0;html=1;whiteSpace=wrap;verticalAlign=middle;align=center;overflow=width;;html=1;" vertex="1" parent="5">
          <mxGeometry width="743.1819201030928" height="60" as="geometry" />
        </mxCell>
        <UserObject label="" tags="Container" id="8">
          <mxCell style="vsdxID=10;fillColor=none;gradientColor=none;strokeColor=none;strokeWidth=2;spacingLeft=1;spacingRight=1;points=[[0.25,0,0],[0.5,0,0],[0.75,0,0],[1,0.25,0],[1,0.5,0],[1,0.75,0],[0.75,0.75,0],[0.5,0.75,0],[0.25,0.75,0],[0.25,0.75,0],[0.25,0.5,0],[0.25,0.25,0]];labelBackgroundColor=none;rounded=0;html=1;whiteSpace=wrap;" vertex="1" parent="1">
            <mxGeometry x="1267" y="356" width="140" height="104" as="geometry" />
          </mxCell>
        </UserObject>
        <mxCell id="9" style="vsdxID=11;fillColor=#ffffff;gradientColor=none;shape=stencil(UzV2Ls5ILEhVNTIoLinKz04tz0wpyVA1dlE1MsrMy0gtyiwBslSNXVWNndPyi1LTi/JL81Ig/IJEkEoQKze/DGRCBUSfAUiHkUElhGdoAOG7QZTmZOYhKTWlkVqYJFmKiXcDVVSSqRDNS0AGIj7SMnNyINGJLI8ef0AhSNwbuwIA);strokeColor=#41719c;shadow=1;points=[[0.25,0,0],[0.5,0,0],[0.75,0,0],[1,0.25,0],[1,0.5,0],[1,0.75,0],[0.75,1,0],[0.5,1,0],[0.25,1,0],[0,0.75,0],[0,0.5,0],[0,0.25,0]];labelBackgroundColor=none;rounded=0;html=1;whiteSpace=wrap;" vertex="1" parent="8">
          <mxGeometry width="140" height="104" as="geometry" />
        </mxCell>
        <mxCell id="10" value="&lt;div style=&quot;font-size: 1px&quot;&gt;&lt;p style=&quot;text-align:center;margin-left:0;margin-right:0;margin-top:0px;margin-bottom:0px;text-indent:0;vertical-align:middle;direction:ltr;&quot;&gt;&lt;/p&gt;&lt;/div&gt;" style="text;vsdxID=11;fillColor=none;gradientColor=none;strokeColor=none;shadow=1;points=[[0.25,0,0],[0.5,0,0],[0.75,0,0],[1,0.25,0],[1,0.5,0],[1,0.75,0],[0.75,1,0],[0.5,1,0],[0.25,1,0],[0,0.75,0],[0,0.5,0],[0,0.25,0]];labelBackgroundColor=none;rounded=0;html=1;whiteSpace=wrap;verticalAlign=middle;align=center;overflow=width;;html=1;" vertex="1" parent="9">
          <mxGeometry y="-0.33" width="140" height="104.33" as="geometry" />
        </mxCell>
        <mxCell id="11" style="vsdxID=13;fillColor=none;gradientColor=none;gradientDirection=north;strokeColor=none;strokeWidth=2;spacingLeft=1;spacingRight=1;points=[[0.25,0,0],[0.5,0,0],[0.75,0,0],[1,0.25,0],[1,0.5,0],[1,0.75,0],[0.75,1,0],[0.5,1,0],[0.25,1,0],[0,0.75,0],[0,0.5,0],[0,0.25,0]];labelBackgroundColor=none;rounded=0;html=1;whiteSpace=wrap;" vertex="1" parent="8">
          <mxGeometry width="140" height="80" as="geometry" />
        </mxCell>
        <mxCell id="12" value="&lt;div style=&quot;font-size: 1px&quot;&gt;&lt;p style=&quot;text-align:center;margin-left:0;margin-right:0;margin-top:0px;margin-bottom:0px;text-indent:0;vertical-align:middle;direction:ltr;&quot;&gt;&lt;/p&gt;&lt;/div&gt;" style="verticalAlign=middle;align=center;overflow=width;vsdxID=14;fillColor=none;gradientColor=none;strokeColor=none;strokeWidth=2;points=[[0.25,0,0],[0.5,0,0],[0.75,0,0],[1,0.25,0],[1,0.5,0],[1,0.75,0],[0.75,1,0],[0.5,1,0],[0.25,1,0],[0,0.75,0],[0,0.5,0],[0,0.25,0]];labelBackgroundColor=none;rounded=0;html=1;whiteSpace=wrap;" vertex="1" parent="11">
          <mxGeometry width="140" height="30" as="geometry" />
        </mxCell>
        <mxCell id="13" value="&lt;div style=&quot;font-size: 1px&quot;&gt;&lt;font style=&quot;font-size:14.11px;font-family:Calibri;color:#41719c;direction:ltr;letter-spacing:0px;line-height:120%;opacity:1&quot;&gt; &lt;br/&gt;&lt;/font&gt;&lt;/div&gt;" style="text;vsdxID=13;fillColor=none;gradientColor=none;gradientDirection=north;strokeColor=none;strokeWidth=2;spacingLeft=1;spacingRight=1;points=[[0.25,0,0],[0.5,0,0],[0.75,0,0],[1,0.25,0],[1,0.5,0],[1,0.75,0],[0.75,1,0],[0.5,1,0],[0.25,1,0],[0,0.75,0],[0,0.5,0],[0,0.25,0]];labelBackgroundColor=none;rounded=0;html=1;whiteSpace=wrap;verticalAlign=middle;align=left;overflow=width;;html=1;" vertex="1" parent="11">
          <mxGeometry width="140" height="30" as="geometry" />
        </mxCell>
        <UserObject label="&lt;div style=&quot;font-size: 1px&quot;&gt;&lt;font style=&quot;font-size:19.76px;font-family:Calibri;color:#3c668c;direction:ltr;letter-spacing:0px;line-height:120%;opacity:1&quot;&gt;SSNA Server&lt;br/&gt;&lt;/font&gt;&lt;/div&gt;" tags="Background" id="22">
          <mxCell style="verticalAlign=middle;align=center;overflow=width;vsdxID=15;fillColor=none;gradientColor=none;shape=stencil(nZBLDoAgDERP0z3SIyjew0SURgSD+Lu9kMZoXLhwN9O+tukAlrNpJg1SzDH4QW/URgNYgZTkjA4UkwJUgGXng+6DX1zLfmoymdXo17xh5zmRJ6Q42BWCfc2oJfdAr+Yv+AP9Cb7OJ3H/2JG1HNGz/84klThPVCc=);strokeColor=none;strokeWidth=2;points=[];labelBackgroundColor=none;rounded=0;html=1;whiteSpace=wrap;" vertex="1" parent="11">
            <mxGeometry x="23" y="22" width="94" height="60" as="geometry" />
          </mxCell>
        </UserObject>
        <UserObject label="" tags="Background" id="20">
          <mxCell style="vsdxID=3;shape=stencil(tZTbDoIwDEC/Zo+YsQXBZy//sciAxclImYJ/70ghAkGCqG/tetr1lhK+LzNRSMJoacFcZKVimxF+IIypPJOgrJMIPxK+TwzIFMwtj1EvREM20tXcmwg1+jHauDD6QNWnqJ+Q1Sp/zwbL0XAGXUvyGdIfoix4j+6Wo11zlmWwvK5oNTo3guiDyQbr2e2Pws4v4mhpgxHbRwWcnQm6ObBNC0PXM1RbezgZitaeqFXpgbHCKpMP9k8LSKXnvvESLdLWD01lJWXRe/4iseka/5KYE17nIVFa43Xp28fnxD3hKeLHJw==);strokeWidth=2;points=[];labelBackgroundColor=none;rounded=0;html=1;whiteSpace=wrap;" vertex="1" parent="1">
            <mxGeometry x="372" y="385" width="28" height="70" as="geometry" />
          </mxCell>
        </UserObject>
        <UserObject label="&lt;div style=&quot;font-size: 1px&quot;&gt;&lt;font style=&quot;font-size:16.93px;font-family:Calibri;color:#3c668c;direction:ltr;letter-spacing:0px;line-height:120%;opacity:1&quot;&gt;Student&lt;br/&gt;&lt;/font&gt;&lt;/div&gt;" tags="Background" id="21">
          <mxCell style="verticalAlign=middle;align=center;overflow=width;vsdxID=9;fillColor=none;gradientColor=none;shape=stencil(nZBLDoAgDERP0z3SIyjew0SURgSD+Lu9kMZoXLhwN9O+tukAlrNpJg1SzDH4QW/URgNYgZTkjA4UkwJUgGXng+6DX1zLfmoymdXo17xh5zmRJ6Q42BWCfc2oJfdAr+Yv+AP9Cb7OJ3H/2JG1HNGz/84klThPVCc=);strokeColor=none;strokeWidth=2;points=[];labelBackgroundColor=none;rounded=0;html=1;whiteSpace=wrap;" vertex="1" parent="1">
            <mxGeometry x="278" y="461" width="214" height="28" as="geometry" />
          </mxCell>
        </UserObject>
        <UserObject label="&lt;div style=&quot;font-size: 1px&quot;&gt;&lt;font style=&quot;font-size:16.93px;font-family:Calibri;color:#1b2e3f;direction:ltr;letter-spacing:0px;line-height:120%;opacity:1&quot;&gt;Registration&lt;/font&gt;&lt;font style=&quot;font-size:16.93px;font-family:Themed;color:#1b2e3f;direction:ltr;letter-spacing:0px;line-height:120%;opacity:1&quot;&gt;&lt;br/&gt;&lt;/font&gt;&lt;/div&gt;" tags="Background" id="23">
          <mxCell style="verticalAlign=middle;align=center;overflow=width;vsdxID=19;shape=stencil(vVHLDsIgEPwajiQI6RfU+h8bu22JCGRB2/69kG1iazx58DazM/vIjjBtmiCi0CplCjecbZ8nYc5Ca+snJJsLEqYTph0C4Ujh4XvmEaqzont41gkL96naodXKrGF6YSfQtUi0OXXDVlqPfJNP6usotUhYbJIUMmQb/GGrAxpRljVycDBuc1hKM2LclX8/7H9nFfB+82Cd45T2+mcspcSRmu4F);strokeWidth=2;points=[];labelBackgroundColor=none;rounded=0;html=1;whiteSpace=wrap;" vertex="1" parent="1">
            <mxGeometry x="702" y="215" width="174" height="56" as="geometry" />
          </mxCell>
        </UserObject>
        <UserObject label="&lt;div style=&quot;font-size: 1px&quot;&gt;&lt;font style=&quot;font-size:16.93px;font-family:Calibri;color:#1b2e3f;direction:ltr;letter-spacing:0px;line-height:120%;opacity:1&quot;&gt;Manage Events&lt;br/&gt;&lt;/font&gt;&lt;/div&gt;" tags="Background" id="26">
          <mxCell style="verticalAlign=middle;align=center;overflow=width;vsdxID=57;shape=stencil(vVHLDsIgEPwajiQI6RfU+h8bu22JCGRB2/69kG1iazx58DazM/vIjjBtmiCi0CplCjecbZ8nYc5Ca+snJJsLEqYTph0C4Ujh4XvmEaqzont41gkL96naodXKrGF6YSfQtUi0OXXDVlqPfJNP6usotUhYbJIUMmQb/GGrAxpRljVycDBuc1hKM2LclX8/7H9nFfB+82Cd45T2+mcspcSRmu4F);strokeWidth=2;points=[];labelBackgroundColor=none;rounded=0;html=1;whiteSpace=wrap;" vertex="1" parent="1">
            <mxGeometry x="695" y="546" width="188" height="43" as="geometry" />
          </mxCell>
        </UserObject>
        <UserObject label="&lt;div style=&quot;font-size: 1px&quot;&gt;&lt;font style=&quot;font-size:16.93px;font-family:Calibri;color:#1b2e3f;direction:ltr;letter-spacing:0px;line-height:120%;opacity:1&quot;&gt;Manage Guidance Portal&lt;br/&gt;&lt;/font&gt;&lt;/div&gt;" tags="Background" id="27">
          <mxCell style="verticalAlign=middle;align=center;overflow=width;vsdxID=59;shape=stencil(vVHLDsIgEPwajiQI6RfU+h8bu22JCGRB2/69kG1iazx58DazM/vIjjBtmiCi0CplCjecbZ8nYc5Ca+snJJsLEqYTph0C4Ujh4XvmEaqzont41gkL96naodXKrGF6YSfQtUi0OXXDVlqPfJNP6usotUhYbJIUMmQb/GGrAxpRljVycDBuc1hKM2LclX8/7H9nFfB+82Cd45T2+mcspcSRmu4F);strokeWidth=2;points=[];labelBackgroundColor=none;rounded=0;html=1;whiteSpace=wrap;" vertex="1" parent="1">
            <mxGeometry x="695" y="443" width="188" height="45" as="geometry" />
          </mxCell>
        </UserObject>
        <UserObject label="&lt;div style=&quot;font-size: 1px&quot;&gt;&lt;font style=&quot;font-size:16.93px;font-family:Calibri;color:#1b2e3f;direction:ltr;letter-spacing:0px;line-height:120%;opacity:1&quot;&gt;Manage Announcements&lt;/font&gt;&lt;font style=&quot;font-size:16.93px;font-family:Themed;color:#1b2e3f;direction:ltr;letter-spacing:0px;line-height:120%;opacity:1&quot;&gt;&lt;br/&gt;&lt;/font&gt;&lt;/div&gt;" tags="Background" id="28">
          <mxCell style="verticalAlign=middle;align=center;overflow=width;vsdxID=60;shape=stencil(vVHLDsIgEPwajiQI6RfU+h8bu22JCGRB2/69kG1iazx58DazM/vIjjBtmiCi0CplCjecbZ8nYc5Ca+snJJsLEqYTph0C4Ujh4XvmEaqzont41gkL96naodXKrGF6YSfQtUi0OXXDVlqPfJNP6usotUhYbJIUMmQb/GGrAxpRljVycDBuc1hKM2LclX8/7H9nFfB+82Cd45T2+mcspcSRmu4F);strokeWidth=2;points=[];labelBackgroundColor=none;rounded=0;html=1;whiteSpace=wrap;" vertex="1" parent="1">
            <mxGeometry x="693" y="395" width="197" height="43" as="geometry" />
          </mxCell>
        </UserObject>
        <UserObject label="&lt;div style=&quot;font-size: 1px&quot;&gt;&lt;font style=&quot;font-size:16.93px;font-family:Calibri;color:#1b2e3f;direction:ltr;letter-spacing:0px;line-height:120%;opacity:1&quot;&gt;Get Location&lt;br/&gt;&lt;/font&gt;&lt;/div&gt;" tags="Background" id="29">
          <mxCell style="verticalAlign=middle;align=center;overflow=width;vsdxID=62;shape=stencil(vVHLDsIgEPwajiQI6RfU+h8bu22JCGRB2/69kG1iazx58DazM/vIjjBtmiCi0CplCjecbZ8nYc5Ca+snJJsLEqYTph0C4Ujh4XvmEaqzont41gkL96naodXKrGF6YSfQtUi0OXXDVlqPfJNP6usotUhYbJIUMmQb/GGrAxpRljVycDBuc1hKM2LclX8/7H9nFfB+82Cd45T2+mcspcSRmu4F);strokeWidth=2;points=[];labelBackgroundColor=none;rounded=0;html=1;whiteSpace=wrap;" vertex="1" parent="1">
            <mxGeometry x="695" y="493" width="188" height="45" as="geometry" />
          </mxCell>
        </UserObject>
        <UserObject label="&lt;div style=&quot;font-size: 1px&quot;&gt;&lt;font style=&quot;font-size:16.93px;font-family:Calibri;color:#1b2e3f;direction:ltr;letter-spacing:0px;line-height:120%;opacity:1&quot;&gt;Manage Timetable&lt;br/&gt;&lt;/font&gt;&lt;/div&gt;" tags="Background" id="30">
          <mxCell style="verticalAlign=middle;align=center;overflow=width;vsdxID=63;shape=stencil(vVHLDsIgEPwajiQI6RfU+h8bu22JCGRB2/69kG1iazx58DazM/vIjjBtmiCi0CplCjecbZ8nYc5Ca+snJJsLEqYTph0C4Ujh4XvmEaqzont41gkL96naodXKrGF6YSfQtUi0OXXDVlqPfJNP6usotUhYbJIUMmQb/GGrAxpRljVycDBuc1hKM2LclX8/7H9nFfB+82Cd45T2+mcspcSRmu4F);strokeWidth=2;points=[];labelBackgroundColor=none;rounded=0;html=1;whiteSpace=wrap;" vertex="1" parent="1">
            <mxGeometry x="702" y="613" width="176" height="43" as="geometry" />
          </mxCell>
        </UserObject>
        <UserObject label="&lt;div style=&quot;font-size: 1px&quot;&gt;&lt;font style=&quot;font-size:16.93px;font-family:Calibri;color:#1b2e3f;direction:ltr;letter-spacing:0px;line-height:120%;opacity:1&quot;&gt;Manage Faculty Info&lt;br/&gt;&lt;/font&gt;&lt;/div&gt;" tags="Background" id="31">
          <mxCell style="verticalAlign=middle;align=center;overflow=width;vsdxID=66;shape=stencil(vVHLDsIgEPwajiQI6RfU+h8bu22JCGRB2/69kG1iazx58DazM/vIjjBtmiCi0CplCjecbZ8nYc5Ca+snJJsLEqYTph0C4Ujh4XvmEaqzont41gkL96naodXKrGF6YSfQtUi0OXXDVlqPfJNP6usotUhYbJIUMmQb/GGrAxpRljVycDBuc1hKM2LclX8/7H9nFfB+82Cd45T2+mcspcSRmu4F);strokeWidth=2;points=[];labelBackgroundColor=none;rounded=0;html=1;whiteSpace=wrap;" vertex="1" parent="1">
            <mxGeometry x="701" y="668" width="176" height="45" as="geometry" />
          </mxCell>
        </UserObject>
        <UserObject label="" tags="Background" id="34">
          <mxCell style="vsdxID=106;shape=stencil(tZTbDoIwDEC/Zo+YsQXBZy//sciAxclImYJ/70ghAkGCqG/tetr1lhK+LzNRSMJoacFcZKVimxF+IIypPJOgrJMIPxK+TwzIFMwtj1EvREM20tXcmwg1+jHauDD6QNWnqJ+Q1Sp/zwbL0XAGXUvyGdIfoix4j+6Wo11zlmWwvK5oNTo3guiDyQbr2e2Pws4v4mhpgxHbRwWcnQm6ObBNC0PXM1RbezgZitaeqFXpgbHCKpMP9k8LSKXnvvESLdLWD01lJWXRe/4iseka/5KYE17nIVFa43Xp28fnxD3hKeLHJw==);strokeWidth=2;points=[];labelBackgroundColor=none;rounded=0;html=1;whiteSpace=wrap;" vertex="1" parent="1">
            <mxGeometry x="368" y="755" width="28" height="70" as="geometry" />
          </mxCell>
        </UserObject>
        <UserObject label="&lt;div style=&quot;font-size: 1px&quot;&gt;&lt;font style=&quot;font-size:16.93px;font-family:Calibri;color:#3c668c;direction:ltr;letter-spacing:0px;line-height:120%;opacity:1&quot;&gt;Admin&lt;br/&gt;&lt;/font&gt;&lt;/div&gt;" tags="Background" id="35">
          <mxCell style="verticalAlign=middle;align=center;overflow=width;vsdxID=107;fillColor=none;gradientColor=none;shape=stencil(nZBLDoAgDERP0z3SIyjew0SURgSD+Lu9kMZoXLhwN9O+tukAlrNpJg1SzDH4QW/URgNYgZTkjA4UkwJUgGXng+6DX1zLfmoymdXo17xh5zmRJ6Q42BWCfc2oJfdAr+Yv+AP9Cb7OJ3H/2JG1HNGz/84klThPVCc=);strokeColor=none;strokeWidth=2;points=[];labelBackgroundColor=none;rounded=0;html=1;whiteSpace=wrap;" vertex="1" parent="1">
            <mxGeometry x="278" y="825" width="214" height="28" as="geometry" />
          </mxCell>
        </UserObject>
        <UserObject label="" tags="Background" id="36">
          <mxCell style="vsdxID=112;shape=stencil(tZTbDoIwDEC/Zo+YsQXBZy//sciAxclImYJ/70ghAkGCqG/tetr1lhK+LzNRSMJoacFcZKVimxF+IIypPJOgrJMIPxK+TwzIFMwtj1EvREM20tXcmwg1+jHauDD6QNWnqJ+Q1Sp/zwbL0XAGXUvyGdIfoix4j+6Wo11zlmWwvK5oNTo3guiDyQbr2e2Pws4v4mhpgxHbRwWcnQm6ObBNC0PXM1RbezgZitaeqFXpgbHCKpMP9k8LSKXnvvESLdLWD01lJWXRe/4iseka/5KYE17nIVFa43Xp28fnxD3hKeLHJw==);strokeWidth=2;points=[];labelBackgroundColor=none;rounded=0;html=1;whiteSpace=wrap;" vertex="1" parent="1">
            <mxGeometry x="320" y="571" width="28" height="70" as="geometry" />
          </mxCell>
        </UserObject>
        <UserObject label="&lt;div style=&quot;font-size: 1px&quot;&gt;&lt;font style=&quot;font-size:16.93px;font-family:Calibri;color:#3c668c;direction:ltr;letter-spacing:0px;line-height:120%;opacity:1&quot;&gt;Senior&lt;br/&gt;&lt;/font&gt;&lt;/div&gt;" tags="Background" id="37">
          <mxCell style="verticalAlign=middle;align=center;overflow=width;vsdxID=113;fillColor=none;gradientColor=none;shape=stencil(nZBLDoAgDERP0z3SIyjew0SURgSD+Lu9kMZoXLhwN9O+tukAlrNpJg1SzDH4QW/URgNYgZTkjA4UkwJUgGXng+6DX1zLfmoymdXo17xh5zmRJ6Q42BWCfc2oJfdAr+Yv+AP9Cb7OJ3H/2JG1HNGz/84klThPVCc=);strokeColor=none;strokeWidth=2;points=[];labelBackgroundColor=none;rounded=0;html=1;whiteSpace=wrap;" vertex="1" parent="1">
            <mxGeometry x="230" y="643" width="214" height="28" as="geometry" />
          </mxCell>
        </UserObject>
        <UserObject label="" tags="Background" id="39">
          <mxCell style="vsdxID=127;shape=stencil(tZTbDoIwDEC/Zo+YsQXBZy//sciAxclImYJ/70ghAkGCqG/tetr1lhK+LzNRSMJoacFcZKVimxF+IIypPJOgrJMIPxK+TwzIFMwtj1EvREM20tXcmwg1+jHauDD6QNWnqJ+Q1Sp/zwbL0XAGXUvyGdIfoix4j+6Wo11zlmWwvK5oNTo3guiDyQbr2e2Pws4v4mhpgxHbRwWcnQm6ObBNC0PXM1RbezgZitaeqFXpgbHCKpMP9k8LSKXnvvESLdLWD01lJWXRe/4iseka/5KYE17nIVFa43Xp28fnxD3hKeLHJw==);strokeWidth=2;points=[];labelBackgroundColor=none;rounded=0;html=1;whiteSpace=wrap;" vertex="1" parent="1">
            <mxGeometry x="422" y="575" width="28" height="70" as="geometry" />
          </mxCell>
        </UserObject>
        <UserObject label="&lt;div style=&quot;font-size: 1px&quot;&gt;&lt;font style=&quot;font-size:16.93px;font-family:Calibri;color:#3c668c;direction:ltr;letter-spacing:0px;line-height:120%;opacity:1&quot;&gt;Junior&lt;br/&gt;&lt;/font&gt;&lt;/div&gt;" tags="Background" id="40">
          <mxCell style="verticalAlign=middle;align=center;overflow=width;vsdxID=128;fillColor=none;gradientColor=none;shape=stencil(nZBLDoAgDERP0z3SIyjew0SURgSD+Lu9kMZoXLhwN9O+tukAlrNpJg1SzDH4QW/URgNYgZTkjA4UkwJUgGXng+6DX1zLfmoymdXo17xh5zmRJ6Q42BWCfc2oJfdAr+Yv+AP9Cb7OJ3H/2JG1HNGz/84klThPVCc=);strokeColor=none;strokeWidth=2;points=[];labelBackgroundColor=none;rounded=0;html=1;whiteSpace=wrap;" vertex="1" parent="1">
            <mxGeometry x="330" y="641" width="214" height="28" as="geometry" />
          </mxCell>
        </UserObject>
        <mxCell id="47" vertex="1" parent="1">
          <mxGeometry x="878" y="636" as="geometry" />
        </mxCell>
        <mxCell id="49" vertex="1" parent="1">
          <mxGeometry x="892" y="418" as="geometry" />
        </mxCell>
        <UserObject label="&lt;div style=&quot;font-size: 1px&quot;&gt;&lt;font style=&quot;font-size:11.29px;font-family:Calibri;color:#305475;direction:ltr;letter-spacing:0px;line-height:120%;opacity:1&quot;&gt;&amp;lt;&amp;lt;Extend&amp;gt;&amp;gt;&lt;br/&gt;&lt;/font&gt;&lt;/div&gt;" tags="Connector" id="50">
          <mxCell style="vsdxID=186;edgeStyle=none;dashed=1;startArrow=none;endArrow=open;startSize=2;endSize=7;strokeColor=#41719c;spacingTop=0;spacingBottom=0;spacingLeft=0;spacingRight=0;verticalAlign=middle;html=1;labelBackgroundColor=#ffffff;rounded=0;align=center;exitX=0.18181818181818182;exitY=0.8867924528301887;exitDx=0;exitDy=0;exitPerimeter=0;" edge="1" parent="1" source="44">
            <mxGeometry x="0.0929" y="-9" relative="1" as="geometry">
              <mxPoint as="offset" />
              <Array as="points" />
              <mxPoint x="890" y="411" as="targetPoint" />
            </mxGeometry>
          </mxCell>
        </UserObject>
        <mxCell id="51" vertex="1" parent="1">
          <mxGeometry x="877" y="689" as="geometry" />
        </mxCell>
        <UserObject label="&lt;div style=&quot;font-size: 1px&quot;&gt;&lt;font style=&quot;font-size:11.29px;font-family:Calibri;color:#305475;direction:ltr;letter-spacing:0px;line-height:120%;opacity:1&quot;&gt;&amp;lt;&amp;lt;Extend&amp;gt;&amp;gt;&lt;br/&gt;&lt;/font&gt;&lt;/div&gt;" tags="Connector" id="52">
          <mxCell style="vsdxID=183;edgeStyle=none;dashed=1;startArrow=none;endArrow=open;startSize=2;endSize=7;strokeColor=#41719c;spacingTop=0;spacingBottom=0;spacingLeft=0;spacingRight=0;verticalAlign=middle;html=1;labelBackgroundColor=#ffffff;rounded=0;align=center;exitX=-0.007;exitY=0.414;exitDx=0;exitDy=0;exitPerimeter=0;entryX=0.999;entryY=0.517;entryDx=0;entryDy=0;entryPerimeter=0;" edge="1" parent="1" source="43" target="31">
            <mxGeometry x="0.0328" y="-10" relative="1" as="geometry">
              <mxPoint as="offset" />
              <Array as="points" />
            </mxGeometry>
          </mxCell>
        </UserObject>
        <mxCell id="53" vertex="1" parent="1">
          <mxGeometry x="878" y="636" as="geometry" />
        </mxCell>
        <UserObject label="&lt;div style=&quot;font-size: 1px&quot;&gt;&lt;font style=&quot;font-size:11.29px;font-family:Calibri;color:#305475;direction:ltr;letter-spacing:0px;line-height:120%;opacity:1&quot;&gt;&amp;lt;&amp;lt;Extend&amp;gt;&amp;gt;&lt;br/&gt;&lt;/font&gt;&lt;/div&gt;" tags="Connector" id="54">
          <mxCell style="vsdxID=179;edgeStyle=none;dashed=1;startArrow=none;endArrow=open;startSize=2;endSize=7;strokeColor=#41719c;spacingTop=0;spacingBottom=0;spacingLeft=0;spacingRight=0;verticalAlign=middle;html=1;labelBackgroundColor=#ffffff;rounded=0;align=center;exitX=-0.008;exitY=0.529;exitDx=0;exitDy=0;exitPerimeter=0;" edge="1" parent="1" source="42">
            <mxGeometry x="0.0942" y="-10" relative="1" as="geometry">
              <mxPoint as="offset" />
              <Array as="points" />
              <mxPoint x="879" y="634" as="targetPoint" />
            </mxGeometry>
          </mxCell>
        </UserObject>
        <UserObject label="&lt;div style=&quot;font-size: 1px&quot;&gt;&lt;font style=&quot;font-size:11.29px;font-family:Calibri;color:#305475;direction:ltr;letter-spacing:0px;line-height:120%;opacity:1&quot;&gt;&amp;lt;&amp;lt;Extend&amp;gt;&amp;gt;&lt;br/&gt;&lt;/font&gt;&lt;/div&gt;" tags="Connector" id="55">
          <mxCell style="vsdxID=172;edgeStyle=none;dashed=1;startArrow=none;endArrow=open;startSize=2;endSize=7;strokeColor=#41719c;spacingTop=0;spacingBottom=0;spacingLeft=0;spacingRight=0;verticalAlign=middle;html=1;labelBackgroundColor=#ffffff;rounded=0;align=center;exitX=-0.015;exitY=0.483;exitDx=0;exitDy=0;exitPerimeter=0;" edge="1" parent="1" source="41">
            <mxGeometry x="0.0544" y="-10" relative="1" as="geometry">
              <mxPoint as="offset" />
              <Array as="points" />
              <mxPoint x="883" y="568" as="targetPoint" />
            </mxGeometry>
          </mxCell>
        </UserObject>
        <mxCell id="56" vertex="1" parent="1">
          <mxGeometry x="400" y="495" as="geometry" />
        </mxCell>
        <UserObject label="" tags="Connector" id="57">
          <mxCell style="vsdxID=167;edgeStyle=none;startArrow=none;endFill=0;endArrow=block;startSize=5;endSize=5;strokeColor=#5b9bd5;spacingTop=0;spacingBottom=0;spacingLeft=0;spacingRight=0;verticalAlign=middle;html=1;labelBackgroundColor=#ffffff;rounded=0;exitX=0.2857142857142857;exitY=0.24285714285714285;exitDx=0;exitDy=0;exitPerimeter=0;" edge="1" parent="1" source="39" target="56">
            <mxGeometry relative="1" as="geometry">
              <mxPoint x="-1" y="-1" as="offset" />
              <Array as="points" />
            </mxGeometry>
          </mxCell>
        </UserObject>
        <mxCell id="58" vertex="1" parent="1">
          <mxGeometry x="360" y="495" as="geometry" />
        </mxCell>
        <UserObject label="" tags="Connector" id="59">
          <mxCell style="vsdxID=162;edgeStyle=none;startArrow=none;endFill=0;endArrow=block;startSize=5;endSize=5;strokeColor=#5b9bd5;spacingTop=0;spacingBottom=0;spacingLeft=0;spacingRight=0;verticalAlign=middle;html=1;labelBackgroundColor=#ffffff;rounded=0;exitX=0.75;exitY=0.08571428571428572;exitDx=0;exitDy=0;exitPerimeter=0;" edge="1" parent="1" source="36" target="58">
            <mxGeometry relative="1" as="geometry">
              <mxPoint as="offset" />
              <Array as="points" />
            </mxGeometry>
          </mxCell>
        </UserObject>
        <mxCell id="61" vertex="1" parent="1">
          <mxGeometry x="703" y="312" as="geometry" />
        </mxCell>
        <mxCell id="62" vertex="1" parent="1">
          <mxGeometry x="400" y="421" as="geometry" />
        </mxCell>
        <UserObject label="" tags="Irrigation_System Flow_Segment Connector" id="63">
          <mxCell style="vsdxID=195;edgeStyle=none;startArrow=none;endArrow=none;startSize=5;endSize=5;strokeColor=#5b9bd5;spacingTop=-3;spacingBottom=-3;spacingLeft=-3;spacingRight=-3;verticalAlign=middle;html=1;labelBackgroundColor=#ffffff;rounded=0;exitX=-0.003;exitY=0.499;exitDx=0;exitDy=0;exitPerimeter=0;" edge="1" parent="1" source="25" target="62">
            <mxGeometry relative="1" as="geometry">
              <Array as="points" />
            </mxGeometry>
          </mxCell>
        </UserObject>
        <mxCell id="65" vertex="1" parent="1">
          <mxGeometry x="702" y="245" as="geometry" />
        </mxCell>
        <mxCell id="66" vertex="1" parent="1">
          <mxGeometry x="400" y="421" as="geometry" />
        </mxCell>
        <UserObject label="" tags="Irrigation_System Flow_Segment Connector" id="67">
          <mxCell style="vsdxID=191;edgeStyle=none;startArrow=none;endArrow=none;startSize=5;endSize=5;strokeColor=#5b9bd5;spacingTop=-3;spacingBottom=-3;spacingLeft=-3;spacingRight=-3;verticalAlign=middle;html=1;labelBackgroundColor=#ffffff;rounded=0;" edge="1" parent="1" source="65" target="66">
            <mxGeometry relative="1" as="geometry">
              <Array as="points" />
            </mxGeometry>
          </mxCell>
        </UserObject>
        <mxCell id="69" vertex="1" parent="1">
          <mxGeometry x="1222" y="407" as="geometry" />
        </mxCell>
        <mxCell id="70" vertex="1" parent="1">
          <mxGeometry x="877" y="689" as="geometry" />
        </mxCell>
        <mxCell id="73" vertex="1" parent="1">
          <mxGeometry x="1222" y="407" as="geometry" />
        </mxCell>
        <mxCell id="74" vertex="1" parent="1">
          <mxGeometry x="878" y="636" as="geometry" />
        </mxCell>
        <UserObject label="" tags="Irrigation_System Flow_Segment Connector" id="75">
          <mxCell style="vsdxID=189;edgeStyle=none;startArrow=none;endArrow=none;startSize=5;endSize=5;strokeColor=#5b9bd5;spacingTop=-3;spacingBottom=-3;spacingLeft=-3;spacingRight=-3;verticalAlign=middle;html=1;labelBackgroundColor=#ffffff;rounded=0;exitX=0;exitY=0.5;exitDx=0;exitDy=0;exitPerimeter=0;entryX=0.996;entryY=0.426;entryDx=0;entryDy=0;entryPerimeter=0;" edge="1" parent="1" source="10" target="30">
            <mxGeometry relative="1" as="geometry">
              <Array as="points" />
              <mxPoint x="879" y="631" as="targetPoint" />
            </mxGeometry>
          </mxCell>
        </UserObject>
        <mxCell id="77" vertex="1" parent="1">
          <mxGeometry x="1222" y="407" as="geometry" />
        </mxCell>
        <mxCell id="78" vertex="1" parent="1">
          <mxGeometry x="884" y="570" as="geometry" />
        </mxCell>
        <UserObject label="" tags="Irrigation_System Flow_Segment Connector" id="79">
          <mxCell style="vsdxID=188;edgeStyle=none;startArrow=none;endArrow=none;startSize=5;endSize=5;strokeColor=#5b9bd5;spacingTop=-3;spacingBottom=-3;spacingLeft=-3;spacingRight=-3;verticalAlign=middle;html=1;labelBackgroundColor=#ffffff;rounded=0;exitX=0;exitY=0.5;exitDx=0;exitDy=0;exitPerimeter=0;" edge="1" parent="1" source="10">
            <mxGeometry relative="1" as="geometry">
              <Array as="points" />
              <mxPoint x="882" y="563" as="targetPoint" />
            </mxGeometry>
          </mxCell>
        </UserObject>
        <mxCell id="81" vertex="1" parent="1">
          <mxGeometry x="693" y="416" as="geometry" />
        </mxCell>
        <mxCell id="82" vertex="1" parent="1">
          <mxGeometry x="396" y="795" as="geometry" />
        </mxCell>
        <UserObject label="" tags="Irrigation_System Flow_Segment Connector" id="83">
          <mxCell style="vsdxID=135;edgeStyle=none;startArrow=none;endArrow=none;startSize=5;endSize=5;strokeColor=#5b9bd5;spacingTop=-3;spacingBottom=-3;spacingLeft=-3;spacingRight=-3;verticalAlign=middle;html=1;labelBackgroundColor=#ffffff;rounded=0;noJump=0;fixDash=0;ignoreEdge=0;orthogonalLoop=0;enumerate=0;orthogonal=0;comic=0;jumpStyle=none;" edge="1" parent="1" source="81" target="82">
            <mxGeometry relative="1" as="geometry">
              <Array as="points" />
            </mxGeometry>
          </mxCell>
        </UserObject>
        <mxCell id="85" vertex="1" parent="1">
          <mxGeometry x="702" y="688" as="geometry" />
        </mxCell>
        <mxCell id="86" vertex="1" parent="1">
          <mxGeometry x="396" y="795" as="geometry" />
        </mxCell>
        <UserObject label="" tags="Irrigation_System Flow_Segment Connector" id="87">
          <mxCell style="vsdxID=134;edgeStyle=none;startArrow=none;endArrow=none;startSize=5;endSize=5;strokeColor=#5b9bd5;spacingTop=-3;spacingBottom=-3;spacingLeft=-3;spacingRight=-3;verticalAlign=middle;html=1;labelBackgroundColor=#ffffff;rounded=0;" edge="1" parent="1" source="85" target="86">
            <mxGeometry relative="1" as="geometry">
              <Array as="points" />
            </mxGeometry>
          </mxCell>
        </UserObject>
        <mxCell id="89" vertex="1" parent="1">
          <mxGeometry x="702" y="636" as="geometry" />
        </mxCell>
        <mxCell id="90" vertex="1" parent="1">
          <mxGeometry x="396" y="795" as="geometry" />
        </mxCell>
        <UserObject label="" tags="Irrigation_System Flow_Segment Connector" id="91">
          <mxCell style="vsdxID=133;edgeStyle=none;startArrow=none;endArrow=none;startSize=5;endSize=5;strokeColor=#5b9bd5;spacingTop=-3;spacingBottom=-3;spacingLeft=-3;spacingRight=-3;verticalAlign=middle;html=1;labelBackgroundColor=#ffffff;rounded=0;" edge="1" parent="1" source="89" target="90">
            <mxGeometry relative="1" as="geometry">
              <Array as="points" />
            </mxGeometry>
          </mxCell>
        </UserObject>
        <mxCell id="93" vertex="1" parent="1">
          <mxGeometry x="692" y="785" as="geometry" />
        </mxCell>
        <mxCell id="94" vertex="1" parent="1">
          <mxGeometry x="396" y="795" as="geometry" />
        </mxCell>
        <UserObject label="" tags="Irrigation_System Flow_Segment Connector" id="95">
          <mxCell style="vsdxID=126;edgeStyle=none;startArrow=none;endArrow=none;startSize=5;endSize=5;strokeColor=#5b9bd5;spacingTop=-3;spacingBottom=-3;spacingLeft=-3;spacingRight=-3;verticalAlign=middle;html=1;labelBackgroundColor=#ffffff;rounded=0;exitX=0.006;exitY=0.509;exitDx=0;exitDy=0;exitPerimeter=0;" edge="1" parent="1" source="38" target="94">
            <mxGeometry relative="1" as="geometry">
              <Array as="points" />
            </mxGeometry>
          </mxCell>
        </UserObject>
        <mxCell id="97" vertex="1" parent="1">
          <mxGeometry x="1222" y="407" as="geometry" />
        </mxCell>
        <mxCell id="98" vertex="1" parent="1">
          <mxGeometry x="884" y="464" as="geometry" />
        </mxCell>
        <UserObject label="" tags="Irrigation_System Flow_Segment Connector" id="99">
          <mxCell style="vsdxID=125;edgeStyle=none;startArrow=none;endArrow=none;startSize=5;endSize=5;strokeColor=#5b9bd5;spacingTop=-3;spacingBottom=-3;spacingLeft=-3;spacingRight=-3;verticalAlign=middle;html=1;labelBackgroundColor=#ffffff;rounded=0;exitX=0;exitY=0.5;exitDx=0;exitDy=0;exitPerimeter=0;" edge="1" parent="1" source="10" target="98">
            <mxGeometry relative="1" as="geometry">
              <Array as="points" />
            </mxGeometry>
          </mxCell>
        </UserObject>
        <mxCell id="101" vertex="1" parent="1">
          <mxGeometry x="695" y="569" as="geometry" />
        </mxCell>
        <mxCell id="102" vertex="1" parent="1">
          <mxGeometry x="396" y="795" as="geometry" />
        </mxCell>
        <UserObject label="" tags="Irrigation_System Flow_Segment Connector" id="103">
          <mxCell style="vsdxID=118;edgeStyle=none;startArrow=none;endArrow=none;startSize=5;endSize=5;strokeColor=#5b9bd5;spacingTop=-3;spacingBottom=-3;spacingLeft=-3;spacingRight=-3;verticalAlign=middle;html=1;labelBackgroundColor=#ffffff;rounded=0;" edge="1" parent="1" source="101" target="102">
            <mxGeometry relative="1" as="geometry">
              <Array as="points" />
            </mxGeometry>
          </mxCell>
        </UserObject>
        <mxCell id="105" vertex="1" parent="1">
          <mxGeometry x="692" y="851" as="geometry" />
        </mxCell>
        <mxCell id="106" vertex="1" parent="1">
          <mxGeometry x="396" y="795" as="geometry" />
        </mxCell>
        <UserObject label="" tags="Irrigation_System Flow_Segment Connector" id="107">
          <mxCell style="vsdxID=117;edgeStyle=none;startArrow=none;endArrow=none;startSize=5;endSize=5;strokeColor=#5b9bd5;spacingTop=-3;spacingBottom=-3;spacingLeft=-3;spacingRight=-3;verticalAlign=middle;html=1;labelBackgroundColor=#ffffff;rounded=0;exitX=-0.001;exitY=0.505;exitDx=0;exitDy=0;exitPerimeter=0;" edge="1" parent="1" source="32" target="106">
            <mxGeometry relative="1" as="geometry">
              <Array as="points" />
            </mxGeometry>
          </mxCell>
        </UserObject>
        <mxCell id="109" vertex="1" parent="1">
          <mxGeometry x="892" y="418" as="geometry" />
        </mxCell>
        <UserObject label="" tags="Irrigation_System Flow_Segment Connector" id="110">
          <mxCell style="vsdxID=105;edgeStyle=none;startArrow=none;endArrow=none;startSize=5;endSize=5;strokeColor=#5b9bd5;spacingTop=-3;spacingBottom=-3;spacingLeft=-3;spacingRight=-3;verticalAlign=middle;html=1;labelBackgroundColor=#ffffff;rounded=0;exitX=0;exitY=0.5;exitDx=0;exitDy=0;exitPerimeter=0;" edge="1" parent="1" source="8" target="109">
            <mxGeometry relative="1" as="geometry">
              <Array as="points" />
            </mxGeometry>
          </mxCell>
        </UserObject>
        <mxCell id="112" vertex="1" parent="1">
          <mxGeometry x="884" y="516" as="geometry" />
        </mxCell>
        <UserObject label="" tags="Irrigation_System Flow_Segment Connector" id="113">
          <mxCell style="vsdxID=104;edgeStyle=none;startArrow=none;endArrow=none;startSize=5;endSize=5;strokeColor=#5b9bd5;spacingTop=-3;spacingBottom=-3;spacingLeft=-3;spacingRight=-3;verticalAlign=middle;html=1;labelBackgroundColor=#ffffff;rounded=0;exitX=0;exitY=0.5;exitDx=0;exitDy=0;exitPerimeter=0;" edge="1" parent="1" source="16" target="112">
            <mxGeometry relative="1" as="geometry">
              <Array as="points" />
            </mxGeometry>
          </mxCell>
        </UserObject>
        <mxCell id="115" vertex="1" parent="1">
          <mxGeometry x="694" y="367" as="geometry" />
        </mxCell>
        <mxCell id="116" vertex="1" parent="1">
          <mxGeometry x="400" y="421" as="geometry" />
        </mxCell>
        <UserObject label="" tags="Irrigation_System Flow_Segment Connector" id="117">
          <mxCell style="vsdxID=89;edgeStyle=none;startArrow=none;endArrow=none;startSize=5;endSize=5;strokeColor=#5b9bd5;spacingTop=-3;spacingBottom=-3;spacingLeft=-3;spacingRight=-3;verticalAlign=middle;html=1;labelBackgroundColor=#ffffff;rounded=0;exitX=0.012;exitY=0.509;exitDx=0;exitDy=0;exitPerimeter=0;" edge="1" parent="1" source="46" target="116">
            <mxGeometry relative="1" as="geometry">
              <Array as="points" />
            </mxGeometry>
          </mxCell>
        </UserObject>
        <mxCell id="119" vertex="1" parent="1">
          <mxGeometry x="693" y="416" as="geometry" />
        </mxCell>
        <mxCell id="120" vertex="1" parent="1">
          <mxGeometry x="400" y="421" as="geometry" />
        </mxCell>
        <UserObject label="" tags="Irrigation_System Flow_Segment Connector" id="121">
          <mxCell style="vsdxID=90;edgeStyle=none;startArrow=none;endArrow=none;startSize=5;endSize=5;strokeColor=#5b9bd5;spacingTop=-3;spacingBottom=-3;spacingLeft=-3;spacingRight=-3;verticalAlign=middle;html=1;labelBackgroundColor=#ffffff;rounded=0;" edge="1" parent="1" source="119" target="120">
            <mxGeometry relative="1" as="geometry">
              <Array as="points" />
            </mxGeometry>
          </mxCell>
        </UserObject>
        <mxCell id="123" vertex="1" parent="1">
          <mxGeometry x="695" y="464" as="geometry" />
        </mxCell>
        <mxCell id="124" vertex="1" parent="1">
          <mxGeometry x="400" y="421" as="geometry" />
        </mxCell>
        <UserObject label="" tags="Irrigation_System Flow_Segment Connector" id="125">
          <mxCell style="vsdxID=91;edgeStyle=none;startArrow=none;endArrow=none;startSize=5;endSize=5;strokeColor=#5b9bd5;spacingTop=-3;spacingBottom=-3;spacingLeft=-3;spacingRight=-3;verticalAlign=middle;html=1;labelBackgroundColor=#ffffff;rounded=0;exitX=0.001;exitY=0.485;exitDx=0;exitDy=0;exitPerimeter=0;" edge="1" parent="1" source="27" target="124">
            <mxGeometry relative="1" as="geometry">
              <Array as="points" />
              <mxPoint x="693" y="466" as="sourcePoint" />
            </mxGeometry>
          </mxCell>
        </UserObject>
        <mxCell id="127" vertex="1" parent="1">
          <mxGeometry x="695" y="515" as="geometry" />
        </mxCell>
        <mxCell id="128" vertex="1" parent="1">
          <mxGeometry x="400" y="421" as="geometry" />
        </mxCell>
        <UserObject label="" tags="Irrigation_System Flow_Segment Connector" id="129">
          <mxCell style="vsdxID=92;edgeStyle=none;startArrow=none;endArrow=none;startSize=5;endSize=5;strokeColor=#5b9bd5;spacingTop=-3;spacingBottom=-3;spacingLeft=-3;spacingRight=-3;verticalAlign=middle;html=1;labelBackgroundColor=#ffffff;rounded=0;" edge="1" parent="1" source="127" target="128">
            <mxGeometry relative="1" as="geometry">
              <Array as="points" />
            </mxGeometry>
          </mxCell>
        </UserObject>
        <mxCell id="131" vertex="1" parent="1">
          <mxGeometry x="695" y="569" as="geometry" />
        </mxCell>
        <mxCell id="132" vertex="1" parent="1">
          <mxGeometry x="400" y="421" as="geometry" />
        </mxCell>
        <UserObject label="" tags="Irrigation_System Flow_Segment Connector" id="133">
          <mxCell style="vsdxID=93;edgeStyle=none;startArrow=none;endArrow=none;startSize=5;endSize=5;strokeColor=#5b9bd5;spacingTop=-3;spacingBottom=-3;spacingLeft=-3;spacingRight=-3;verticalAlign=middle;html=1;labelBackgroundColor=#ffffff;rounded=0;" edge="1" parent="1" source="131" target="132">
            <mxGeometry relative="1" as="geometry">
              <Array as="points" />
            </mxGeometry>
          </mxCell>
        </UserObject>
        <mxCell id="135" vertex="1" parent="1">
          <mxGeometry x="702" y="636" as="geometry" />
        </mxCell>
        <mxCell id="136" vertex="1" parent="1">
          <mxGeometry x="400" y="421" as="geometry" />
        </mxCell>
        <UserObject label="" tags="Irrigation_System Flow_Segment Connector" id="137">
          <mxCell style="vsdxID=94;edgeStyle=none;startArrow=none;endArrow=none;startSize=5;endSize=5;strokeColor=#5b9bd5;spacingTop=-3;spacingBottom=-3;spacingLeft=-3;spacingRight=-3;verticalAlign=middle;html=1;labelBackgroundColor=#ffffff;rounded=0;" edge="1" parent="1" source="135" target="136">
            <mxGeometry relative="1" as="geometry">
              <Array as="points" />
            </mxGeometry>
          </mxCell>
        </UserObject>
        <mxCell id="139" vertex="1" parent="1">
          <mxGeometry x="702" y="688" as="geometry" />
        </mxCell>
        <mxCell id="140" vertex="1" parent="1">
          <mxGeometry x="400" y="421" as="geometry" />
        </mxCell>
        <UserObject label="" tags="Irrigation_System Flow_Segment Connector" id="141">
          <mxCell style="vsdxID=95;edgeStyle=none;startArrow=none;endArrow=none;startSize=5;endSize=5;strokeColor=#5b9bd5;spacingTop=-3;spacingBottom=-3;spacingLeft=-3;spacingRight=-3;verticalAlign=middle;html=1;labelBackgroundColor=#ffffff;rounded=0;" edge="1" parent="1" source="139" target="140">
            <mxGeometry relative="1" as="geometry">
              <Array as="points" />
            </mxGeometry>
          </mxCell>
        </UserObject>
        <UserObject label="" tags="Container Connector Annotations Irrigation_System Flow_Segment" id="143">
          <mxCell vertex="1" visible="0" parent="1">
            <mxGeometry as="geometry" />
          </mxCell>
        </UserObject>
        <UserObject label="" tags="Irrigation_System Flow_Segment Connector" id="zwYqGLrPk0C4on1Yfifq-143">
          <mxCell style="vsdxID=135;edgeStyle=none;startArrow=none;endArrow=none;startSize=5;endSize=5;strokeColor=#5b9bd5;spacingTop=-3;spacingBottom=-3;spacingLeft=-3;spacingRight=-3;verticalAlign=middle;html=1;labelBackgroundColor=#ffffff;rounded=0;noJump=0;fixDash=0;ignoreEdge=0;orthogonalLoop=0;enumerate=0;orthogonal=0;comic=0;jumpStyle=none;entryX=1.15;entryY=0.474;entryDx=0;entryDy=0;entryPerimeter=0;exitX=0;exitY=0.493;exitDx=0;exitDy=0;exitPerimeter=0;" edge="1" parent="1" source="27" target="34">
            <mxGeometry relative="1" as="geometry">
              <Array as="points" />
              <mxPoint x="703" y="426" as="sourcePoint" />
              <mxPoint x="413" y="796" as="targetPoint" />
            </mxGeometry>
          </mxCell>
        </UserObject>
        <mxCell id="15" style="vsdxID=97;fillColor=#ffffff;gradientColor=none;shape=stencil(UzV2Ls5ILEhVNTIoLinKz04tz0wpyVA1dlE1MsrMy0gtyiwBslSNXVWNndPyi1LTi/JL81Ig/IJEkEoQKze/DGRCBUSfAUiHkUElhGdoAOG7QZTmZOYhKTWlkVqYJFmKiXcDVVSSqRDNS0AGIj7SMnNyINGJLI8ef0AhSNwbuwIA);strokeColor=#41719c;shadow=1;points=[[0.25,0,0],[0.5,0,0],[0.75,0,0],[1,0.25,0],[1,0.5,0],[1,0.75,0],[0.75,1,0],[0.5,1,0],[0.25,1,0],[0,0.75,0],[0,0.5,0],[0,0.25,0]];labelBackgroundColor=none;rounded=0;html=1;whiteSpace=wrap;" vertex="1" parent="1">
          <mxGeometry x="1269" y="477" width="140" height="104" as="geometry" />
        </mxCell>
        <mxCell id="16" value="&lt;div style=&quot;font-size: 1px&quot;&gt;&lt;p style=&quot;text-align:center;margin-left:0;margin-right:0;margin-top:0px;margin-bottom:0px;text-indent:0;vertical-align:middle;direction:ltr;&quot;&gt;&lt;/p&gt;&lt;/div&gt;" style="text;vsdxID=97;fillColor=none;gradientColor=none;strokeColor=none;shadow=1;points=[[0.25,0,0],[0.5,0,0],[0.75,0,0],[1,0.25,0],[1,0.5,0],[1,0.75,0],[0.75,1,0],[0.5,1,0],[0.25,1,0],[0,0.75,0],[0,0.5,0],[0,0.25,0]];labelBackgroundColor=none;rounded=0;html=1;whiteSpace=wrap;verticalAlign=middle;align=center;overflow=width;;html=1;" vertex="1" parent="15">
          <mxGeometry y="-0.33000000000000007" width="140" height="104.33" as="geometry" />
        </mxCell>
        <UserObject label="&lt;div style=&quot;font-size: 1px&quot;&gt;&lt;font style=&quot;font-size:19.76px;font-family:Calibri;color:#3c668c;direction:ltr;letter-spacing:0px;line-height:120%;opacity:1&quot;&gt;Google Maps API&lt;br/&gt;&lt;/font&gt;&lt;/div&gt;" tags="Background" id="33">
          <mxCell style="verticalAlign=middle;align=center;overflow=width;vsdxID=101;fillColor=none;gradientColor=none;shape=stencil(nZBLDoAgDERP0z3SIyjew0SURgSD+Lu9kMZoXLhwN9O+tukAlrNpJg1SzDH4QW/URgNYgZTkjA4UkwJUgGXng+6DX1zLfmoymdXo17xh5zmRJ6Q42BWCfc2oJfdAr+Yv+AP9Cb7OJ3H/2JG1HNGz/84klThPVCc=);strokeColor=none;strokeWidth=2;points=[];labelBackgroundColor=none;rounded=0;html=1;whiteSpace=wrap;" vertex="1" parent="15">
            <mxGeometry x="23" y="27.5" width="94" height="49" as="geometry" />
          </mxCell>
        </UserObject>
        <UserObject label="" tags="Irrigation_System Flow_Segment Connector" id="IMAR6MLk8uOq-cjDFyLk-143">
          <mxCell style="vsdxID=135;edgeStyle=none;startArrow=none;endArrow=none;startSize=5;endSize=5;strokeColor=#5b9bd5;spacingTop=-3;spacingBottom=-3;spacingLeft=-3;spacingRight=-3;verticalAlign=middle;html=1;labelBackgroundColor=#ffffff;rounded=0;noJump=0;fixDash=0;ignoreEdge=0;orthogonalLoop=0;enumerate=0;orthogonal=0;comic=0;jumpStyle=none;entryX=0.947;entryY=0.64;entryDx=0;entryDy=0;entryPerimeter=0;exitX=-0.004;exitY=0.514;exitDx=0;exitDy=0;exitPerimeter=0;" edge="1" parent="1" source="25" target="34">
            <mxGeometry relative="1" as="geometry">
              <Array as="points" />
              <mxPoint x="683" y="366" as="sourcePoint" />
              <mxPoint x="406" y="805" as="targetPoint" />
            </mxGeometry>
          </mxCell>
        </UserObject>
        <UserObject label="&lt;div style=&quot;font-size: 1px&quot;&gt;&lt;font style=&quot;font-size:16.93px;font-family:Calibri;color:#1b2e3f;direction:ltr;letter-spacing:0px;line-height:120%;opacity:1&quot;&gt;Manage Buses&lt;br&gt;&lt;/font&gt;&lt;/div&gt;" tags="Background" id="QN068_K_DJ08zxaq-ks4-143">
          <mxCell style="verticalAlign=middle;align=center;overflow=width;vsdxID=66;shape=stencil(vVHLDsIgEPwajiQI6RfU+h8bu22JCGRB2/69kG1iazx58DazM/vIjjBtmiCi0CplCjecbZ8nYc5Ca+snJJsLEqYTph0C4Ujh4XvmEaqzont41gkL96naodXKrGF6YSfQtUi0OXXDVlqPfJNP6usotUhYbJIUMmQb/GGrAxpRljVycDBuc1hKM2LclX8/7H9nFfB+82Cd45T2+mcspcSRmu4F);strokeWidth=2;points=[];labelBackgroundColor=none;rounded=0;html=1;whiteSpace=wrap;" vertex="1" parent="1">
            <mxGeometry x="701" y="720" width="176" height="45" as="geometry" />
          </mxCell>
        </UserObject>
        <UserObject label="" tags="Irrigation_System Flow_Segment Connector" id="QN068_K_DJ08zxaq-ks4-144">
          <mxCell style="vsdxID=134;edgeStyle=none;startArrow=none;endArrow=none;startSize=5;endSize=5;strokeColor=#5b9bd5;spacingTop=-3;spacingBottom=-3;spacingLeft=-3;spacingRight=-3;verticalAlign=middle;html=1;labelBackgroundColor=#ffffff;rounded=0;entryX=1.017;entryY=0.565;entryDx=0;entryDy=0;entryPerimeter=0;exitX=0.004;exitY=0.497;exitDx=0;exitDy=0;exitPerimeter=0;" edge="1" parent="1" source="QN068_K_DJ08zxaq-ks4-143" target="34">
            <mxGeometry relative="1" as="geometry">
              <Array as="points" />
              <mxPoint x="712" y="698" as="sourcePoint" />
              <mxPoint x="406" y="805" as="targetPoint" />
            </mxGeometry>
          </mxCell>
        </UserObject>
        <UserObject label="&lt;div style=&quot;font-size: 1px&quot;&gt;&lt;font style=&quot;font-size:11.29px;font-family:Calibri;color:#305475;direction:ltr;letter-spacing:0px;line-height:120%;opacity:1&quot;&gt;&amp;lt;&amp;lt;Extend&amp;gt;&amp;gt;&lt;br/&gt;&lt;/font&gt;&lt;/div&gt;" tags="Connector" id="QN068_K_DJ08zxaq-ks4-146">
          <mxCell style="vsdxID=183;edgeStyle=none;dashed=1;startArrow=none;endArrow=open;startSize=2;endSize=7;strokeColor=#41719c;spacingTop=0;spacingBottom=0;spacingLeft=0;spacingRight=0;verticalAlign=middle;html=1;labelBackgroundColor=#ffffff;rounded=0;align=center;exitX=-0.013;exitY=0.522;exitDx=0;exitDy=0;exitPerimeter=0;entryX=0.997;entryY=0.563;entryDx=0;entryDy=0;entryPerimeter=0;" edge="1" parent="1" source="QN068_K_DJ08zxaq-ks4-145" target="QN068_K_DJ08zxaq-ks4-143">
            <mxGeometry x="-0.0252" y="-10" relative="1" as="geometry">
              <mxPoint as="offset" />
              <Array as="points" />
              <mxPoint x="1115" y="789.22" as="sourcePoint" />
              <mxPoint x="905" y="775.22" as="targetPoint" />
            </mxGeometry>
          </mxCell>
        </UserObject>
        <UserObject label="&lt;div style=&quot;font-size: 1px&quot;&gt;&lt;font style=&quot;font-size:11.29px;font-family:Calibri;color:#305475;direction:ltr;letter-spacing:0px;line-height:120%;opacity:1&quot;&gt;&amp;lt;&amp;lt;Include&amp;gt;&amp;gt;&lt;br&gt;&lt;/font&gt;&lt;/div&gt;" tags="Connector" id="QN068_K_DJ08zxaq-ks4-147">
          <mxCell style="vsdxID=186;edgeStyle=none;dashed=1;startArrow=none;endArrow=open;startSize=2;endSize=7;strokeColor=#41719c;spacingTop=0;spacingBottom=0;spacingLeft=0;spacingRight=0;verticalAlign=middle;html=1;labelBackgroundColor=#ffffff;rounded=0;align=center;exitX=1.014;exitY=0.531;exitDx=0;exitDy=0;exitPerimeter=0;entryX=-0.018;entryY=0.498;entryDx=0;entryDy=0;entryPerimeter=0;" edge="1" parent="1" source="23" target="24">
            <mxGeometry x="-0.0006" y="10" relative="1" as="geometry">
              <mxPoint as="offset" />
              <Array as="points" />
              <mxPoint x="871.24" y="272" as="targetPoint" />
              <mxPoint x="1031.24" y="276" as="sourcePoint" />
            </mxGeometry>
          </mxCell>
        </UserObject>
        <UserObject label="&lt;div style=&quot;font-size: 1px&quot;&gt;&lt;font style=&quot;font-size:11.29px;font-family:Calibri;color:#305475;direction:ltr;letter-spacing:0px;line-height:120%;opacity:1&quot;&gt;&amp;lt;&amp;lt;Extend&amp;gt;&amp;gt;&lt;br/&gt;&lt;/font&gt;&lt;/div&gt;" tags="Connector" id="48">
          <mxCell style="vsdxID=193;edgeStyle=none;dashed=1;startArrow=none;endArrow=open;startSize=2;endSize=7;strokeColor=#41719c;spacingTop=0;spacingBottom=0;spacingLeft=0;spacingRight=0;verticalAlign=middle;html=1;labelBackgroundColor=#ffffff;rounded=0;align=center;exitX=-0.008;exitY=0.476;exitDx=0;exitDy=0;exitPerimeter=0;" edge="1" parent="1" source="45">
            <mxGeometry x="-0.4379" y="-10" relative="1" as="geometry">
              <mxPoint as="offset" />
              <Array as="points" />
              <mxPoint x="876" y="642" as="targetPoint" />
            </mxGeometry>
          </mxCell>
        </UserObject>
      </root>
    </mxGraphModel>
  </diagram>
</mxfile>
